<svg width="20" height="21" viewBox="0 0 20 21" fill="none" xmlns="http://www.w3.org/2000/svg">
<path d="M7.5 15.043C7.5 15.706 7.76339 16.3419 8.23223 16.8107C8.70107 17.2796 9.33696 17.543 10 17.543C10.663 17.543 11.2989 17.2796 11.7678 16.8107C12.2366 16.3419 12.5 15.706 12.5 15.043" stroke="#FF5142" stroke-width="1.5" stroke-linecap="round" stroke-linejoin="round"/>
<path d="M4.37502 8.16797C4.37502 6.67613 4.96766 5.24539 6.02255 4.19049C7.07744 3.1356 8.50818 2.54297 10 2.54297C11.4919 2.54297 12.9226 3.1356 13.9775 4.19049C15.0324 5.24539 15.625 6.67613 15.625 8.16797C15.625 10.9664 16.2735 13.2148 16.7891 14.1055C16.8438 14.2003 16.8727 14.3079 16.8728 14.4174C16.8729 14.5269 16.8442 14.6346 16.7896 14.7295C16.735 14.8245 16.6565 14.9034 16.5618 14.9584C16.467 15.0134 16.3595 15.0426 16.25 15.043H3.75002C3.64063 15.0423 3.53333 15.013 3.43884 14.9578C3.34435 14.9027 3.26599 14.8237 3.21158 14.7288C3.15717 14.6339 3.12862 14.5264 3.12878 14.417C3.12895 14.3076 3.15783 14.2002 3.21252 14.1055C3.72737 13.2148 4.37502 10.9656 4.37502 8.16797Z" stroke="#FF5142" stroke-width="1.5" stroke-linecap="round" stroke-linejoin="round"/>
</svg>
