<svg width="21" height="21" viewBox="0 0 21 21" fill="none" xmlns="http://www.w3.org/2000/svg">
<path d="M9.625 9.41797C9.79076 9.41797 9.94973 9.48382 10.0669 9.60103C10.1842 9.71824 10.25 9.87721 10.25 10.043V13.168C10.25 13.3337 10.3158 13.4927 10.4331 13.6099C10.5503 13.7271 10.7092 13.793 10.875 13.793" stroke="#757575" stroke-width="1.5" stroke-linecap="round" stroke-linejoin="round"/>
<path d="M9.9375 7.38672C10.369 7.38672 10.7188 7.03694 10.7188 6.60547C10.7188 6.174 10.369 5.82422 9.9375 5.82422C9.50603 5.82422 9.15625 6.174 9.15625 6.60547C9.15625 7.03694 9.50603 7.38672 9.9375 7.38672Z" fill="#757575"/>
<path d="M10.25 17.543C14.3921 17.543 17.75 14.1851 17.75 10.043C17.75 5.90083 14.3921 2.54297 10.25 2.54297C6.10786 2.54297 2.75 5.90083 2.75 10.043C2.75 14.1851 6.10786 17.543 10.25 17.543Z" stroke="#757575" stroke-width="1.5" stroke-linecap="round" stroke-linejoin="round"/>
</svg>
