<svg width="18" height="19" viewBox="0 0 18 19" fill="none" xmlns="http://www.w3.org/2000/svg">
<path d="M15.7113 3.71106C15.7033 3.57345 15.645 3.44358 15.5475 3.3461C15.4501 3.24863 15.3202 3.19034 15.1826 3.18231C9.82969 2.86801 5.54203 4.47957 3.71391 7.50301C3.08022 8.53725 2.76796 9.73638 2.81672 10.9483C2.84854 11.7233 3.00623 12.488 3.28359 13.2124C3.29989 13.257 3.32721 13.2967 3.363 13.3279C3.39878 13.3591 3.44188 13.3807 3.48827 13.3907C3.53467 13.4007 3.58285 13.3989 3.62832 13.3853C3.6738 13.3717 3.71509 13.3468 3.74836 13.3129L9.72492 7.24496C9.77718 7.1927 9.83923 7.15125 9.90751 7.12296C9.97579 7.09468 10.049 7.08012 10.1229 7.08012C10.1968 7.08012 10.27 7.09468 10.3383 7.12296C10.4066 7.15125 10.4686 7.1927 10.5209 7.24496C10.5731 7.29723 10.6146 7.35927 10.6429 7.42755C10.6711 7.49584 10.6857 7.56902 10.6857 7.64293C10.6857 7.71684 10.6711 7.79003 10.6429 7.85831C10.6146 7.9266 10.5731 7.98864 10.5209 8.0409L3.98953 14.6707L2.9918 15.6684C2.88803 15.7694 2.82609 15.9058 2.81827 16.0504C2.81045 16.195 2.85734 16.3373 2.94961 16.4489C3.00014 16.5074 3.06219 16.5549 3.13189 16.5883C3.20159 16.6218 3.27744 16.6405 3.3547 16.6434C3.43197 16.6462 3.50898 16.6331 3.58095 16.6048C3.65291 16.5766 3.71828 16.5338 3.77297 16.4791L4.95351 15.2986C5.94773 15.7795 6.95109 16.0418 7.94601 16.0769C8.0243 16.0797 8.10234 16.0811 8.18015 16.0811C9.31317 16.084 10.4247 15.772 11.3906 15.1797C14.4141 13.3516 16.0263 9.06465 15.7113 3.71106Z" fill="#FFFFF5"/>
</svg>
