<svg viewBox="0 0 25 25" fill="none" xmlns="http://www.w3.org/2000/svg">
<path d="M14.5 7L9.5 10.5M14.5 18L9.5 14.5M9.5 12.5C9.5 13.8807 8.38071 15 7 15C5.61929 15 4.5 13.8807 4.5 12.5C4.5 11.1193 5.61929 10 7 10C8.38071 10 9.5 11.1193 9.5 12.5ZM19.5 19C19.5 20.3807 18.3807 21.5 17 21.5C15.6193 21.5 14.5 20.3807 14.5 19C14.5 17.6193 15.6193 16.5 17 16.5C18.3807 16.5 19.5 17.6193 19.5 19ZM19.5 6C19.5 7.38071 18.3807 8.5 17 8.5C15.6193 8.5 14.5 7.38071 14.5 6C14.5 4.61929 15.6193 3.5 17 3.5C18.3807 3.5 19.5 4.61929 19.5 6Z" stroke="black" stroke-width="2" stroke-linecap="round"/>
</svg>
